<svg width="166" height="42" viewBox="0 0 166 42" fill="none" xmlns="http://www.w3.org/2000/svg">
<path d="M40.1949 0.144043H1.38805C1.22165 0.144043 1.03677 0.181017 0.888864 0.236478C0.186311 0.513783 -0.164966 1.30872 0.0753811 2.01123L9.55985 31.3131C9.70775 31.7568 10.0405 32.0896 10.4843 32.2375L39.7696 41.7213C40.5092 41.9802 41.3226 41.5734 41.5815 40.834C41.6185 40.7415 41.6369 40.6491 41.6554 40.5382C41.6554 40.5012 41.6554 40.4457 41.6554 40.4088V1.60452C41.6369 0.791087 41.0083 0.144043 40.1949 0.144043ZM36.7376 22.0512C36.7376 22.273 36.5527 22.4764 36.3308 22.4764H35.1661C34.9257 22.4764 34.7408 22.2915 34.7408 22.0696C34.7408 22.0696 34.7408 22.0696 34.7408 22.0512V13.695C34.7408 11.6615 34.9997 10.3489 35.8316 9.09176L34.9997 8.22287L20.4679 22.6982C20.3755 22.8091 20.2091 22.8091 20.1166 22.7167L20.0981 22.6982L18.9888 21.589C18.8779 21.4965 18.8779 21.3302 18.9888 21.2192L33.5206 6.74391L32.6886 5.93048C31.339 6.74391 30.0448 7.05819 28.1775 7.05819H18.8225C18.6006 7.05819 18.4157 6.87332 18.4157 6.65147V5.44982C18.4157 5.22797 18.6006 5.02461 18.8225 5.02461H36.3308C36.5527 5.02461 36.7561 5.20948 36.7376 5.44982V22.0512Z" fill="#FF4F00"/>
<path d="M71.0699 11.8609H69.8812C69.7011 11.8609 69.521 11.9691 69.4489 12.1493L69.3409 12.4377C69.1067 12.9965 68.7645 13.5193 68.3683 13.9699C67.6839 14.6909 66.8554 15.2497 65.9188 15.5742C64.7661 16.0068 63.3612 16.2231 61.7402 16.2231C60.1013 16.2231 58.6964 16.0068 57.5437 15.5742C56.6251 15.2497 55.7966 14.7089 55.1302 14.006C54.806 13.6635 54.5359 13.2489 54.3197 12.8163C53.7794 11.7528 53.5092 10.5451 53.5453 9.35539L53.5633 9.19316V9.03094C53.5453 7.91336 53.7794 6.81381 54.2477 5.80438C54.4999 5.24559 54.8601 4.74088 55.2743 4.29025C55.9407 3.60528 56.7512 3.08254 57.6518 2.77611C58.7865 2.32547 60.1553 2.10917 61.7583 2.10917C63.2892 2.10917 64.604 2.30745 65.7207 2.72204C66.6753 3.02847 67.5398 3.56923 68.2422 4.30827C68.6204 4.70483 68.9266 5.15547 69.1788 5.62413L69.3229 5.94859C69.4129 6.14687 69.593 6.25502 69.8092 6.25502H70.9799C71.196 6.25502 71.3581 6.07476 71.3581 5.85846C71.3581 5.82241 71.3581 5.76833 71.3401 5.73228C70.6377 3.80356 69.0887 1.58643 65.6666 0.631085C63.037 -0.0358558 60.2814 -0.0178299 57.6518 0.685162C53.8154 1.83879 52.3926 4.59668 51.8883 6.63355V6.65158C51.6721 7.46272 51.5821 8.30992 51.6181 9.15711C51.5641 10.0764 51.6541 11.0137 51.8883 11.897C52.4106 13.8978 53.7974 16.4935 57.5077 17.611C57.5077 17.6291 57.5077 17.6291 57.5257 17.611C58.8945 18.0076 60.3174 18.2059 61.7583 18.1698C63.0911 18.1879 64.4239 18.0256 65.7207 17.6831H65.7387C69.3589 16.6917 70.8718 14.3304 71.4842 12.3476C71.5382 12.1493 71.4301 11.915 71.232 11.8609C71.142 11.8609 71.1059 11.8609 71.0699 11.8609Z" fill="#FF4F00"/>
<path d="M142.923 39.3281L139.208 32.7358C139.116 32.5705 139.153 32.3501 139.318 32.2216C139.885 31.7258 140.343 31.1198 140.654 30.4404C140.91 29.816 140.91 29.1366 140.91 27.7777C140.91 26.4556 140.727 25.4273 140.361 24.6744C139.812 23.5726 138.805 22.9299 137.396 22.7462C136.591 22.6361 134.706 22.581 131.778 22.5259H121.639C121.419 22.5259 121.236 22.6911 121.236 22.9115V39.5118C121.236 39.7321 121.419 39.9158 121.639 39.9158H122.883C123.103 39.9158 123.286 39.7321 123.286 39.5118V33.6172C123.286 33.3968 123.469 33.2316 123.67 33.2316H131.778C132.29 33.2499 132.784 33.2499 133.297 33.2499C134.45 33.2316 135.786 33.1949 136.884 33.1398C137.03 33.1398 137.176 33.2132 137.25 33.3418L137.744 34.2232L140.782 39.7321C140.855 39.8607 140.983 39.9341 141.13 39.9341H142.594C142.813 39.9341 142.996 39.7505 142.996 39.5485C142.978 39.475 142.96 39.4016 142.923 39.3281ZM138.293 29.7609C138.22 29.9997 138.073 30.22 137.89 30.4037C137.597 30.6791 137.25 30.8627 136.847 30.9546C136.499 31.028 136.133 31.0831 135.786 31.1015C134.889 31.1565 133.553 31.1933 131.759 31.1933H123.652C123.432 31.1933 123.267 31.0096 123.267 30.7893V24.9682C123.267 24.7478 123.432 24.5642 123.652 24.5642H131.759C133.699 24.5642 135.145 24.6193 136.115 24.6927C136.81 24.7478 137.323 24.9131 137.707 25.1885C138.256 25.5742 138.531 26.4372 138.531 27.7594C138.549 28.4388 138.476 29.1182 138.293 29.7609Z" fill="#FF4F00"/>
<path d="M119.919 16.9469L116.201 10.3615C116.109 10.1964 116.146 9.9763 116.311 9.8479C116.897 9.37096 117.355 8.76562 117.648 8.06855C117.904 7.44486 117.904 6.76614 117.904 5.39036C117.904 4.06961 117.721 3.04236 117.355 2.30861C116.805 1.20798 115.816 0.565949 114.388 0.364168C113.582 0.254105 111.695 0.180731 108.764 0.144043H98.6168C98.397 0.144043 98.2322 0.32748 98.2322 0.547605V17.1487C98.2322 17.3688 98.397 17.5523 98.6168 17.5523H99.8624C100.082 17.5523 100.265 17.3688 100.265 17.1487V11.2604C100.265 11.0402 100.43 10.8568 100.65 10.8568H100.668H108.764C109.277 10.8751 109.772 10.8752 110.285 10.8752C111.439 10.8568 112.776 10.8385 113.875 10.7651C114.021 10.7467 114.168 10.8201 114.241 10.9669L114.736 11.8474L117.794 17.3505C117.868 17.4789 117.996 17.5523 118.124 17.5523H119.59C119.809 17.5523 119.992 17.3688 119.992 17.1487C119.992 17.0753 119.956 17.002 119.919 16.9469ZM115.285 7.38983C115.212 7.6283 115.065 7.84843 114.882 8.03187C114.589 8.30702 114.241 8.49046 113.838 8.58218C113.49 8.65555 113.124 8.71059 112.776 8.72893C111.878 8.78396 110.541 8.82065 108.746 8.82065H100.65C100.43 8.82065 100.247 8.65555 100.247 8.43543V8.41708V2.60211C100.247 2.38198 100.43 2.19855 100.65 2.19855H108.746C110.688 2.19855 112.135 2.25358 113.105 2.32695C113.801 2.38198 114.314 2.54708 114.699 2.80389C115.248 3.18911 115.523 4.05127 115.523 5.39036C115.542 6.06908 115.468 6.7478 115.285 7.38983Z" fill="#FF4F00"/>
<path d="M68.4462 30.8957C67.7704 30.4754 66.6013 30.2561 64.9391 30.2561C60.409 30.2379 58.0527 30.2196 57.4864 30.183C55.4223 30.0551 54.2167 29.7079 53.8879 29.1232C53.687 28.7759 53.5774 28.1912 53.5774 27.4054C53.5591 26.9668 53.6322 26.51 53.7966 26.108C54.0523 25.5049 54.582 25.1029 55.404 24.9202C56.6827 24.6278 58.6737 24.4816 61.4137 24.4816C63.2038 24.4816 64.592 24.5912 65.6149 24.7922C66.51 24.975 67.0945 25.3222 67.3502 25.8156C67.4598 26.0349 67.5329 26.4369 67.5694 27.0217V27.3506C67.5694 27.5516 67.7521 27.7161 67.953 27.7161H69.2682C69.4874 27.7161 69.6701 27.5333 69.6701 27.2958C69.6701 27.2958 69.6701 27.2958 69.6701 27.2775C69.6701 27.0948 69.6701 26.9486 69.6518 26.8572C69.5787 25.7059 69.3047 24.8653 68.8481 24.3171C68.3366 23.6958 67.6425 23.2572 66.857 23.0562C65.6149 22.709 63.77 22.5263 61.3589 22.5263C58.1988 22.5263 55.9155 22.4897 54.3446 23.111C53.3947 23.4765 53.139 23.7872 52.9015 24.0247C52.0978 24.8105 51.6046 25.8521 51.6046 27.4237C51.5864 28.1912 51.7142 28.977 51.9517 29.7079C52.2257 30.4571 52.7737 31.0967 53.4861 31.4622C54.3628 31.9921 55.4406 32.248 57.4864 32.248H63.0942C64.6651 32.248 65.7793 32.3211 66.4369 32.4307C67.0397 32.5404 67.4598 32.7962 67.6973 33.1617C67.9348 33.5271 68.0626 34.1667 68.0626 35.0073C68.0626 36.4875 67.5146 37.3464 66.4004 37.5839C65.2861 37.8215 63.4412 37.9677 60.8474 37.986C57.5229 37.986 55.4954 37.8763 54.783 37.6388C54.2715 37.4743 53.9245 37.2002 53.7601 36.8164C53.6322 36.5241 53.5591 35.8662 53.5409 34.8429C53.5226 34.6236 53.3399 34.4591 53.1207 34.4591H52.0613C51.8421 34.4591 51.6594 34.6419 51.6594 34.8611C51.6594 35.0804 51.6594 35.1901 51.6594 35.2266C51.6594 35.7748 51.6777 36.3231 51.769 36.8713C51.8969 37.6936 52.3353 38.4245 53.0111 38.8997C53.5957 39.3382 54.1071 39.6306 55.3127 39.7768C56.6096 39.9047 57.9065 39.9595 59.2034 39.923C61.7242 39.923 63.6056 39.8682 64.8112 39.7768C66.1812 39.6489 67.2224 39.4479 67.9713 39.1372C68.6472 38.8814 69.2317 38.4063 69.6153 37.785C70.0537 37.054 70.2546 36.0672 70.2546 34.8063C70.2181 32.9424 69.6335 31.6267 68.4462 30.8957Z" fill="#FF4F00"/>
<path d="M95.9261 22.5272H73.1457C72.9253 22.5272 72.7416 22.7117 72.7416 22.9333V24.1885C72.7416 24.41 72.9253 24.5946 73.1457 24.5946H83.103C83.3234 24.5946 83.5072 24.7792 83.5072 25.0007V39.528C83.5072 39.7495 83.6909 39.9341 83.9113 39.9341H85.1606C85.381 39.9341 85.5647 39.7495 85.5647 39.528V24.9638C85.5647 24.7423 85.7484 24.5577 85.9689 24.5577H95.9629C96.1833 24.5577 96.367 24.3731 96.367 24.1516V22.8963C96.3303 22.6933 96.1466 22.5087 95.9261 22.5272Z" fill="#FF4F00"/>
<path d="M165.577 22.5272H142.779C142.558 22.5272 142.375 22.7117 142.375 22.9333V24.1885C142.375 24.41 142.558 24.5946 142.779 24.5946H152.736C152.956 24.5946 153.14 24.7792 153.14 25.0007V39.528C153.14 39.7495 153.324 39.9341 153.544 39.9341H154.794C155.014 39.9341 155.198 39.7495 155.198 39.528V24.9638C155.198 24.7423 155.381 24.5577 155.602 24.5577H165.596C165.816 24.5577 166 24.3731 166 24.1516V22.8963C165.963 22.6933 165.78 22.5087 165.577 22.5272Z" fill="#FF4F00"/>
<path d="M95.0698 16.9824L86.8275 0.364633C86.7558 0.235955 86.6304 0.144043 86.4871 0.144043H81.3983C81.255 0.144043 81.1296 0.235955 81.0579 0.364633L72.7797 16.9824C72.6901 17.1846 72.7618 17.4236 72.9589 17.5155C73.0126 17.5523 73.0843 17.5523 73.1381 17.5523H74.8403C74.9836 17.5523 75.127 17.4788 75.1987 17.3317L78.2627 11.0449C78.3164 10.9162 78.4598 10.8243 78.5852 10.8243H89.3898C89.5331 10.8243 89.6586 10.9162 89.7123 11.0449L92.7405 17.3133C92.7942 17.4604 92.9376 17.5339 93.0809 17.5339H94.7294C94.9444 17.5339 95.1236 17.3685 95.1236 17.1479C95.1236 17.1111 95.1057 17.0376 95.0698 16.9824ZM88.028 8.80221H79.9649C79.7678 8.80221 79.5886 8.63677 79.5886 8.43456C79.5886 8.37941 79.6065 8.30588 79.6244 8.25073L82.4734 2.40509C82.5451 2.27642 82.6884 2.1845 82.8318 2.1845H85.179C85.3224 2.1845 85.4657 2.25803 85.5374 2.40509L88.3506 8.25073C88.4401 8.45294 88.3506 8.67353 88.1714 8.76544C88.1355 8.78382 88.0818 8.80221 88.028 8.80221Z" fill="#FF4F00"/>
<path d="M119.327 39.3643L110.851 22.7465C110.778 22.6178 110.649 22.5259 110.483 22.5259H105.269C105.121 22.5259 104.974 22.5994 104.9 22.7465L96.4067 39.3643C96.3146 39.5665 96.3883 39.8054 96.5725 39.8974C96.6278 39.9341 96.6831 39.9341 96.7568 39.9341H98.5071C98.6545 39.9341 98.8019 39.8606 98.8756 39.7135L102.026 33.4267C102.081 33.298 102.229 33.2245 102.358 33.2245H113.468C113.615 33.2245 113.744 33.298 113.818 33.4267L116.932 39.7135C117.005 39.8422 117.153 39.9341 117.3 39.9341H118.977C119.198 39.9341 119.364 39.7687 119.364 39.5481C119.382 39.4929 119.364 39.4194 119.327 39.3643ZM112.086 31.184H103.777C103.574 31.184 103.39 31.0186 103.39 30.798C103.39 30.7429 103.408 30.6693 103.426 30.6326L106.356 24.7869C106.43 24.6582 106.577 24.5663 106.724 24.5663H109.156C109.304 24.5663 109.451 24.6399 109.525 24.7869L112.418 30.6509C112.51 30.8348 112.418 31.0737 112.233 31.1473C112.215 31.184 112.141 31.2024 112.086 31.184Z" fill="#FF4F00"/>
<path d="M164.74 9.15902C164.74 9.15902 165.415 0.144043 154.178 0.144043C142.941 0.144043 143.635 9.15902 143.635 9.15902C143.635 9.15902 142.716 18.174 154.178 18.174C165.64 18.174 164.74 9.15902 164.74 9.15902ZM161.082 14.0091C159.656 15.4875 157.349 16.2268 154.178 16.2268C151.008 16.2268 148.701 15.4875 147.275 14.0091C145.418 12.0618 145.643 9.37538 145.643 9.35735L145.662 9.17705L145.643 9.03281C145.643 9.01478 145.511 6.23817 147.425 4.29094C148.851 2.83051 151.121 2.10931 154.178 2.10931C157.236 2.10931 159.487 2.83051 160.932 4.29094C162.845 6.2562 162.714 9.01478 162.714 9.03281L162.695 9.19508L162.714 9.33932C162.714 9.37538 162.92 12.0618 161.082 14.0091Z" fill="#FF4F00"/>
<path d="M127.023 17.6714C129.736 18.3385 132.558 18.3385 135.289 17.6894C140.824 16.2469 141.662 11.9015 141.753 10.0443V10.0082C141.753 9.79184 141.753 9.61153 141.753 9.48531V9.05257H130.829C130.61 9.05257 130.428 9.23288 130.428 9.44925V10.6573C130.428 10.8737 130.61 11.054 130.829 11.054H139.441C139.441 11.3245 139.441 11.5769 139.422 11.8113C139.167 12.5866 138.749 13.3079 138.202 13.9029C137.42 14.7143 136.455 15.3093 135.38 15.6339C134.215 16.0125 132.813 16.2109 131.193 16.2109C129.536 16.2109 128.097 16.0125 126.914 15.5978C125.876 15.2733 124.948 14.6963 124.201 13.9029C123.728 13.38 123.345 12.7669 123.072 12.0998C122.745 11.2163 122.581 10.2787 122.617 9.34106L122.635 9.17879L122.617 8.99848C122.599 8.11496 122.744 7.24947 123.054 6.43808C123.327 5.68078 123.746 4.97757 124.31 4.38255C125.039 3.64328 125.913 3.08432 126.896 2.74173C128.079 2.30899 129.518 2.09262 131.174 2.09262C132.831 2.09262 134.251 2.30899 135.435 2.74173C136.418 3.06629 137.31 3.62525 138.039 4.36452C138.439 4.77923 138.767 5.26607 139.022 5.77093C139.095 5.89715 139.222 5.98731 139.368 5.98731H140.679C140.897 5.98731 141.079 5.807 141.079 5.59062C141.079 5.53653 141.061 5.50047 141.043 5.44638C140.278 3.62525 138.712 1.62381 135.435 0.686203C134.051 0.307553 132.613 0.127243 131.174 0.145274C129.754 0.127243 128.352 0.307553 126.969 0.668172C120.141 2.59749 120.632 9.16076 120.632 9.16076C120.614 9.28697 120.614 9.41319 120.614 9.53941C120.614 9.68365 120.614 9.84593 120.632 10.0443C120.742 11.8834 121.561 16.2109 127.023 17.6714Z" fill="#FF4F00"/>
</svg>
